<?xml version="1.0" standalone="no"?><!DOCTYPE svg PUBLIC "-//W3C//DTD SVG 1.1//EN" "http://www.w3.org/Graphics/SVG/1.1/DTD/svg11.dtd"><svg t="1656453056079" class="icon" viewBox="0 0 1024 1024" version="1.1" xmlns="http://www.w3.org/2000/svg" p-id="5210" xmlns:xlink="http://www.w3.org/1999/xlink" width="32" height="32"><defs><style type="text/css"></style></defs><path d="M1023.988 981.334c0 23.56-19.124 42.654-42.686 42.654H42.684c-23.562 0-42.672-19.094-42.672-42.654V85.354c0-23.562 19.11-42.67 42.672-42.67h938.62c23.562 0 42.686 19.108 42.686 42.67v895.98z" fill="#F6BB42" p-id="5211"></path><path d="M1023.988 895.992c0 23.56-19.124 42.686-42.686 42.686H42.684c-23.562 0-42.672-19.124-42.672-42.686V42.682C0.012 19.12 19.122 0.012 42.684 0.012h938.62c23.562 0 42.686 19.11 42.686 42.67v853.31z" fill="#FFCE54" p-id="5212"></path><path d="M426.674 0.012h170.638v938.666h-170.638z" fill="#48CFAD" p-id="5213"></path><path d="M0.012 426.674h1023.976v170.668H0.012z" fill="#48CFAD" p-id="5214"></path><path d="M549.438 559.312l29.344-20.532-67.218 13.124-67.202-13.124 29.344 20.532-307.634 60.06 7.906 23.124c0.734 2.188 19.062 53.406 92.154 53.406 58.342 0 135.748-33.468 230.072-99.404l15.36-10.75 15.376 10.75c94.312 65.936 171.746 99.404 230.058 99.404 73.124 0 91.434-51.218 92.184-53.406l7.876-23.124-307.62-60.06z" fill="#DA4453" p-id="5215"></path><path d="M834.932 340.442c-17.094-27.25-43.966-41.656-77.748-41.656-50.188 0-117.81 31.89-201.028 94.794a1166.094 1166.094 0 0 0-44.594 35.484c-13.468-11.25-28.498-23.344-44.576-35.484-83.202-62.904-150.856-94.794-201.042-94.794-33.764 0-60.638 14.406-77.748 41.656-45.81 73.06-51.936 190.622-15.61 299.492 3.922 11.75 14.266 19.062 27 19.062 11.422 0 23.454-5.438 43.374-14.5 38.312-17.374 102.42-46.498 194.152-46.498 21.094 0 42.796 1.562 64.624 4.688 2.704 0.594 5.328 1 7.812 1.188l0.562 0.032 0.984 0.156 0.468-0.032 0.484 0.032 0.984-0.156 0.546-0.032a56.39 56.39 0 0 0 7.828-1.188c21.828-3.124 43.532-4.688 64.624-4.688 91.714 0 155.84 29.124 194.152 46.498 19.936 9.062 31.936 14.5 43.374 14.5 12.718 0 23.06-7.312 26.998-19.062 36.316-108.872 30.19-226.432-15.62-299.492z" fill="#ED5564" p-id="5216"></path><path d="M511.562 586.686c-47.044 0-85.326-38.31-85.326-85.342 0-47.06 38.282-85.342 85.326-85.342 47.062 0 85.344 38.282 85.344 85.342 0 47.032-38.282 85.342-85.344 85.342z" fill="#F6BB42" p-id="5217"></path><path d="M511.562 394.674c-58.904 0-106.652 47.766-106.652 106.67 0 58.906 47.748 106.654 106.652 106.654 58.938 0 106.688-47.748 106.688-106.654 0-58.904-47.75-106.67-106.688-106.67z m0 170.668c-35.28 0-63.998-28.716-63.998-63.998 0-35.296 28.718-63.998 63.998-63.998 35.312 0 64 28.702 64 63.998 0 35.28-28.686 63.998-64 63.998z" fill="#FFCE54" p-id="5218"></path><path d="M426.674 938.678h170.232v85.31h-170.232z" fill="#37BC9B" p-id="5219"></path></svg>